<?xml version="1.0" standalone="no"?>
<!DOCTYPE svg PUBLIC "-//W3C//DTD SVG 20010904//EN"
 "http://www.w3.org/TR/2001/REC-SVG-20010904/DTD/svg10.dtd">
<svg version="1.0" xmlns="http://www.w3.org/2000/svg"
 width="244.000000pt" height="244.000000pt" viewBox="0 0 244.000000 244.000000"
 preserveAspectRatio="xMidYMid meet">

<g transform="translate(0.000000,244.000000) scale(0.100000,-0.100000)"
fill="#000000" stroke="none">
<path d="M2190 1869 c0 -6 12 -23 26 -36 23 -21 26 -29 20 -66 -9 -60 -71
-143 -152 -205 -76 -58 -249 -150 -389 -207 -49 -20 -103 -42 -120 -50 -16 -7
-84 -30 -149 -50 -66 -21 -137 -49 -159 -63 -40 -26 -104 -110 -227 -297 -80
-121 -106 -175 -125 -251 -16 -64 -1 -108 40 -118 39 -10 45 2 12 26 -16 12
-27 29 -27 44 0 85 138 310 337 548 l49 58 190 63 c474 157 716 318 749 499 5
25 3 46 -6 63 -15 28 -69 61 -69 42z"/>
<path d="M1290 1861 c0 -5 10 -13 23 -16 42 -13 89 -58 109 -103 17 -38 20
-59 15 -121 -6 -89 -24 -134 -103 -261 -31 -51 -57 -101 -57 -109 0 -9 -5 -22
-11 -30 -6 -8 9 -3 33 10 25 13 77 56 115 96 123 124 268 254 369 330 94 70
245 153 279 153 9 0 19 7 22 16 4 12 1 14 -14 9 -11 -3 -32 -9 -47 -11 -46 -9
-197 -93 -290 -163 -48 -36 -164 -140 -257 -231 -164 -160 -168 -162 -114 -89
90 123 101 150 106 261 3 76 1 107 -13 140 -19 48 -57 93 -97 114 -31 16 -68
19 -68 5z"/>
<path d="M1023 1815 c-82 -26 -168 -80 -239 -150 -109 -108 -148 -213 -105
-283 24 -37 61 -58 88 -48 14 6 11 11 -22 29 -33 19 -42 30 -49 65 -8 38 -5
49 25 108 51 102 197 221 314 257 19 6 35 16 35 24 0 7 -1 13 -2 12 -2 -1 -22
-7 -45 -14z"/>
<path d="M1306 1697 c6 -16 -78 -147 -131 -206 -40 -44 -148 -119 -202 -141
-32 -12 -39 -21 -27 -32 20 -20 188 86 256 162 54 59 143 212 131 223 -12 12
-32 7 -27 -6z"/>
<path d="M1035 1013 c-210 -219 -358 -333 -548 -423 -56 -26 -110 -50 -120
-53 -18 -7 -24 -27 -7 -27 6 0 38 9 72 21 220 74 482 272 640 484 28 39 63 85
76 103 13 17 23 32 21 31 -2 -1 -62 -62 -134 -136z"/>
<path d="M794 1088 c-264 -89 -465 -198 -585 -318 -106 -105 -132 -217 -57
-243 26 -9 33 13 9 29 -82 58 71 236 319 372 86 47 317 142 409 167 34 10 64
21 66 26 14 21 -24 14 -161 -33z"/>
<path d="M1545 860 c-7 -22 -209 -188 -301 -247 -34 -22 -87 -50 -118 -64 -30
-13 -56 -30 -56 -37 0 -17 27 -9 105 30 139 71 385 271 385 315 0 28 -7 30
-15 3z"/>
</g>
</svg>
